<?xml version="1.0" standalone="no"?>
<!DOCTYPE svg PUBLIC "-//W3C//DTD SVG 20010904//EN"
 "http://www.w3.org/TR/2001/REC-SVG-20010904/DTD/svg10.dtd">
<svg version="1.0" xmlns="http://www.w3.org/2000/svg"
 width="1249.000000pt" height="1249.000000pt" viewBox="0 0 1249.000000 1249.000000"
 preserveAspectRatio="xMidYMid meet">
<metadata>
Created by potrace 1.14, written by Peter Selinger 2001-2017
</metadata>
<g transform="translate(0.000000,1249.000000) scale(0.100000,-0.100000)"
fill="#000000" stroke="none">
<path d="M9128 12385 c-2 -2 -91 -6 -198 -9 -107 -4 -217 -8 -245 -11 -27 -2
-102 -6 -165 -10 -63 -4 -135 -8 -159 -10 -224 -18 -257 -21 -441 -40 -14 -1
-59 -6 -100 -9 -41 -4 -84 -9 -95 -11 -11 -2 -45 -7 -75 -10 -30 -3 -71 -8
-90 -10 -19 -3 -55 -7 -80 -10 -25 -3 -63 -8 -85 -11 -74 -11 -90 -13 -135
-19 -25 -3 -70 -10 -100 -15 -30 -5 -75 -12 -100 -15 -25 -3 -52 -8 -60 -10
-8 -3 -31 -7 -50 -9 -20 -3 -47 -7 -60 -10 -14 -3 -43 -8 -65 -11 -22 -3 -47
-7 -55 -10 -8 -2 -31 -6 -50 -9 -19 -3 -44 -7 -55 -10 -11 -2 -69 -13 -130
-25 -150 -29 -154 -29 -173 -35 -9 -3 -30 -8 -47 -10 -24 -5 -216 -47 -275
-61 -73 -17 -158 -37 -170 -40 -16 -3 -254 -65 -350 -92 -30 -8 -62 -16 -70
-18 -77 -20 -429 -128 -599 -185 -329 -109 -800 -294 -1114 -437 -88 -40 -520
-256 -602 -301 -27 -15 -77 -43 -110 -61 -33 -19 -70 -39 -82 -45 -13 -6 -23
-14 -23 -18 0 -5 -5 -8 -10 -8 -6 0 -47 -22 -91 -50 -44 -27 -83 -50 -85 -50
-3 0 -17 -8 -32 -19 -15 -10 -97 -65 -182 -121 -143 -95 -318 -217 -330 -230
-3 -3 -41 -32 -85 -65 -101 -76 -281 -222 -326 -265 -8 -8 -53 -49 -100 -91
-310 -281 -611 -631 -804 -934 -21 -33 -48 -76 -60 -95 -111 -173 -265 -501
-338 -720 -82 -244 -136 -503 -153 -732 -13 -169 -7 -479 11 -593 3 -16 7 -52
10 -80 23 -196 121 -548 215 -770 40 -94 173 -357 222 -438 281 -470 608 -845
1108 -1271 211 -180 625 -475 885 -629 11 -7 31 -19 45 -28 27 -18 54 -33 275
-157 125 -70 511 -264 660 -332 22 -10 65 -29 95 -43 61 -28 330 -140 400
-167 495 -189 939 -336 1315 -435 142 -38 403 -104 450 -114 57 -13 86 -20
120 -28 17 -4 32 -7 35 -8 23 -5 90 -16 92 -15 2 1 16 -3 31 -9 15 -6 42 -13
60 -16 18 -3 88 -17 157 -31 69 -14 138 -27 153 -29 16 -2 40 -6 55 -9 15 -3
43 -8 62 -11 19 -3 42 -8 50 -10 16 -5 48 -10 120 -20 24 -4 47 -8 50 -10 3
-2 33 -6 65 -10 33 -3 67 -8 75 -10 8 -3 33 -7 55 -10 22 -3 51 -8 65 -10 119
-21 121 -21 211 51 114 92 295 276 402 409 79 99 267 365 267 379 0 3 13 27
29 53 66 108 127 225 209 403 67 145 157 378 149 386 -6 7 -38 11 -127 18 -41
4 -88 8 -105 10 -16 2 -57 7 -90 11 -33 4 -73 8 -90 10 -16 2 -50 7 -75 10
-25 3 -56 7 -70 10 -14 2 -45 7 -70 10 -80 11 -232 36 -360 60 -69 13 -140 26
-157 30 -18 3 -112 23 -210 46 -98 22 -186 42 -196 44 -197 44 -575 159 -902
275 -67 24 -300 116 -350 139 -22 10 -69 31 -105 46 -73 31 -379 182 -485 240
-110 60 -314 184 -435 265 -44 29 -206 145 -210 150 -3 3 -23 19 -45 35 -207
152 -496 436 -666 655 -241 311 -423 696 -474 1000 -3 19 -8 42 -10 50 -2 8
-7 38 -10 65 -3 28 -8 68 -11 90 -11 86 -3 442 11 465 2 3 6 29 10 59 4 30 11
65 16 78 5 13 7 23 4 23 -2 0 1 15 6 33 6 17 12 40 14 50 9 39 57 193 64 202
4 6 16 33 26 60 46 127 171 354 278 505 567 794 1617 1442 2961 1825 132 37
392 105 463 120 10 2 94 20 187 40 94 19 186 38 205 41 20 3 43 7 51 9 8 3 33
7 55 10 22 4 51 8 65 11 14 3 41 7 60 10 19 2 64 9 100 15 36 6 81 12 100 15
19 2 51 6 70 9 42 7 87 12 160 20 30 4 66 8 80 10 14 2 57 7 95 10 39 3 81 8
95 10 14 2 68 7 120 11 52 3 111 7 130 9 139 14 454 24 795 25 219 1 305 6
395 20 303 49 546 138 742 272 427 292 447 706 50 1012 -195 150 -536 278
-827 311 -33 4 -69 10 -80 13 -20 5 -642 12 -647 7z"/>
<path d="M8588 9750 c-17 -17 -28 -39 -28 -55 0 -15 32 -79 77 -153 67 -111
223 -409 223 -427 0 -3 8 -25 19 -48 132 -295 254 -781 287 -1147 3 -41 10
-106 14 -145 7 -74 5 -571 -4 -640 -3 -22 -8 -69 -11 -105 -13 -133 -60 -412
-76 -452 -25 -62 -414 -280 -734 -413 -253 -105 -661 -227 -895 -268 -14 -3
-63 -12 -110 -20 -47 -9 -103 -18 -125 -22 -22 -3 -53 -7 -70 -10 -16 -2 -50
-7 -75 -9 -25 -3 -70 -8 -100 -11 -254 -27 -514 -34 -805 -22 -93 4 -179 9
-191 11 -11 2 -54 7 -95 10 -41 4 -85 8 -99 10 -14 2 -50 7 -80 10 -47 6 -209
33 -305 51 -73 14 -256 56 -325 75 -149 42 -190 37 -215 -23 -9 -21 -10 -39
-3 -58 15 -44 224 -238 390 -363 496 -373 1145 -637 1823 -741 61 -10 119 -19
130 -21 10 -2 51 -6 90 -10 38 -3 77 -8 87 -9 163 -31 805 -25 1073 10 22 3
60 8 85 11 540 69 1127 262 1580 520 72 41 281 176 321 208 14 12 38 30 53 41
98 70 284 242 423 390 47 51 176 225 231 312 43 68 152 280 183 358 33 84 91
296 104 380 3 23 8 52 11 65 9 41 13 381 4 440 -16 111 -21 140 -35 202 -59
273 -186 544 -374 798 -136 183 -319 368 -523 527 -325 254 -747 471 -1183
609 -98 31 -306 89 -353 99 -9 2 -75 15 -147 30 -190 39 -213 39 -247 5z"/>
<path d="M3301 2857 c-59 -59 133 -480 584 -1282 62 -110 121 -214 131 -232
135 -231 200 -343 392 -663 270 -452 265 -446 316 -492 66 -62 118 -82 216
-82 73 -1 93 3 140 26 66 32 77 42 159 138 35 41 67 77 70 80 3 3 23 26 44 52
21 26 44 53 50 60 7 7 66 78 130 158 65 80 123 152 130 160 121 148 309 399
409 545 173 252 258 417 273 529 6 42 4 49 -23 76 -21 21 -40 30 -62 30 -100
0 -623 135 -1165 300 -547 167 -1379 449 -1660 564 -108 45 -119 48 -134 33z"/>
</g>
</svg>
